<?xml version="1.0" encoding="UTF-8" standalone="no"?>
<!-- Created with Inkscape (http://www.inkscape.org/) -->

<svg
   version="1.1"
   id="svg1"
   width="1600"
   height="509.83099"
   viewBox="0 0 1600 509.831"
   sodipodi:docname="logo_colour.svg"
   inkscape:version="1.3 (0e150ed, 2023-07-21)"
   xmlns:inkscape="http://www.inkscape.org/namespaces/inkscape"
   xmlns:sodipodi="http://sodipodi.sourceforge.net/DTD/sodipodi-0.dtd"
   xmlns="http://www.w3.org/2000/svg"
   xmlns:svg="http://www.w3.org/2000/svg">
  <defs
     id="defs1" />
  <sodipodi:namedview
     id="namedview1"
     pagecolor="#ffffff"
     bordercolor="#000000"
     borderopacity="0.25"
     inkscape:showpageshadow="2"
     inkscape:pageopacity="0.0"
     inkscape:pagecheckerboard="0"
     inkscape:deskcolor="#d1d1d1"
     showgrid="false"
     inkscape:zoom="0.46289894"
     inkscape:cx="907.32547"
     inkscape:cy="306.76242"
     inkscape:window-width="1440"
     inkscape:window-height="729"
     inkscape:window-x="0"
     inkscape:window-y="25"
     inkscape:window-maximized="0"
     inkscape:current-layer="g1"
     showguides="true">
    <sodipodi:guide
       position="352.1287,209.54947"
       orientation="0,-1"
       id="guide1"
       inkscape:locked="false" />
  </sodipodi:namedview>
  <g
     inkscape:groupmode="layer"
     inkscape:label="Image"
     id="g1"
     transform="translate(-91.118645,-1.0847453)">
    <path
       style="fill:#1a1a1a;stroke:#24a3fa;stroke-width:0"
       d="M 91.118644,256 V 1.0847458 H 256 420.88136 V 256 510.91525 H 256 91.118644 Z m 301.559326,0 V 29.288136 H 256 119.32203 V 256 482.71186 H 256 392.67797 Z"
       id="path1" />
    <path
       style="fill:#1a1a1a;stroke:#24a3fa;stroke-width:0"
       d="m 239.72881,144.48846 c -20.03391,-9.29537 -30.55296,-29.79231 -25.32358,-49.344376 5.7895,-21.646299 19.4474,-32.22883 41.59477,-32.22883 22.14737,0 35.80527,10.582531 41.59477,32.22883 6.73989,25.199696 -15.21538,53.370796 -41.59477,53.370796 -4.17627,0 -11.49831,-1.81189 -16.27119,-4.02642 z M 267.219,116.8163 c 4.03169,-3.64863 5.44599,-16.875345 2.3071,-21.576264 -5.21779,-7.814372 -18.35478,-8.745496 -25.3066,-1.793679 -4.46979,4.469794 -4.36144,17.969733 0.18454,22.992983 4.5393,5.01588 17.45325,5.22925 22.81496,0.37696 z"
       id="path2" />
    <path
       style="fill:#008000;stroke:#24a3fa;stroke-width:0"
       d="m 242.98305,241.89831 v -58.57628 h 58.57627 58.57627 v 58.57628 58.57627 h -58.57627 -58.57627 z m 88.94915,0 v -30.37289 h -31.45762 -31.45763 v 30.37289 30.37288 h 31.45763 31.45762 z"
       id="path3" />
    <path
       style="fill:#ff6600;stroke:#24a3fa;stroke-width:0"
       d="m 151.86441,391.59322 v -58.57627 h 58.57627 58.57627 v 58.57627 58.57627 h -58.57627 -58.57627 z m 90.63584,0.54237 0.60193,-30.91525 H 211.58499 180.0678 v 31.51719 31.5172 l 30.91525,-0.60194 30.91526,-0.60194 z"
       id="path4" />
    <text
       xml:space="preserve"
       style="font-stretch:condensed;font-size:120px;font-family:'Final Frontier Old Style';-inkscape-font-specification:'Final Frontier Old Style Condensed';fill:#ffffff;stroke:#24a3fa;stroke-width:0"
       x="487.33124"
       y="147.98506"
       id="text1"><tspan
         sodipodi:role="line"
         id="tspan1"
         x="487.33124"
         y="147.98506"
         style="font-style:normal;font-variant:normal;font-weight:normal;font-stretch:normal;font-size:120px;font-family:Graduate;-inkscape-font-specification:Graduate;fill:#000000">Backyard</tspan><tspan
         sodipodi:role="line"
         x="487.33124"
         y="298.32443"
         style="font-style:normal;font-variant:normal;font-weight:normal;font-stretch:normal;font-size:120px;font-family:Graduate;-inkscape-font-specification:Graduate;fill:#000000"
         id="tspan3">Cornhole League</tspan><tspan
         sodipodi:role="line"
         x="487.33124"
         y="448.66382"
         style="font-style:normal;font-variant:normal;font-weight:normal;font-stretch:normal;font-size:120px;font-family:Graduate;-inkscape-font-specification:Graduate;fill:#000000"
         id="tspan2">Result Tracker</tspan></text>
  </g>
</svg>
